<svg width="113" height="36" viewBox="0 0 113 36" fill="none" xmlns="http://www.w3.org/2000/svg">
<path d="M7.43963 26.1682C6.27163 26.1682 5.21563 25.9682 4.27163 25.5682C3.34363 25.1682 2.60763 24.5922 2.06363 23.8402C1.51963 23.0882 1.23963 22.2002 1.22363 21.1762H4.82363C4.87163 21.8642 5.11163 22.4082 5.54363 22.8082C5.99163 23.2082 6.59963 23.4082 7.36763 23.4082C8.15163 23.4082 8.76763 23.2242 9.21563 22.8562C9.66363 22.4722 9.88763 21.9762 9.88763 21.3682C9.88763 20.8722 9.73563 20.4642 9.43163 20.1442C9.12763 19.8242 8.74363 19.5762 8.27963 19.4002C7.83163 19.2082 7.20763 19.0002 6.40763 18.7762C5.31963 18.4562 4.43163 18.1442 3.74363 17.8402C3.07163 17.5202 2.48763 17.0482 1.99163 16.4242C1.51163 15.7842 1.27163 14.9362 1.27163 13.8802C1.27163 12.8882 1.51963 12.0242 2.01563 11.2882C2.51163 10.5522 3.20763 9.99223 4.10363 9.60823C4.99963 9.20823 6.02363 9.00823 7.17563 9.00823C8.90363 9.00823 10.3036 9.43223 11.3756 10.2802C12.4636 11.1122 13.0636 12.2802 13.1756 13.7842H9.47963C9.44763 13.2082 9.19963 12.7362 8.73563 12.3682C8.28763 11.9842 7.68763 11.7922 6.93563 11.7922C6.27963 11.7922 5.75163 11.9602 5.35163 12.2962C4.96763 12.6322 4.77563 13.1202 4.77563 13.7602C4.77563 14.2082 4.91963 14.5842 5.20763 14.8882C5.51163 15.1762 5.87963 15.4162 6.31163 15.6082C6.75963 15.7842 7.38363 15.9922 8.18363 16.2322C9.27163 16.5522 10.1596 16.8722 10.8476 17.1922C11.5356 17.5122 12.1276 17.9922 12.6236 18.6322C13.1196 19.2722 13.3676 20.1122 13.3676 21.1522C13.3676 22.0482 13.1356 22.8802 12.6716 23.6482C12.2076 24.4162 11.5276 25.0322 10.6316 25.4962C9.73563 25.9442 8.67163 26.1682 7.43963 26.1682Z" fill="url(#paint0_linear_3831_2789)"/>
<path d="M22.1846 26.2162C20.9046 26.2162 19.7526 25.9362 18.7286 25.3762C17.7046 24.8002 16.8966 23.9922 16.3046 22.9522C15.7286 21.9122 15.4406 20.7122 15.4406 19.3522C15.4406 17.9922 15.7366 16.7922 16.3286 15.7522C16.9366 14.7122 17.7606 13.9122 18.8006 13.3522C19.8406 12.7762 21.0006 12.4882 22.2806 12.4882C23.5606 12.4882 24.7206 12.7762 25.7606 13.3522C26.8006 13.9122 27.6166 14.7122 28.2086 15.7522C28.8166 16.7922 29.1206 17.9922 29.1206 19.3522C29.1206 20.7122 28.8086 21.9122 28.1846 22.9522C27.5766 23.9922 26.7446 24.8002 25.6886 25.3762C24.6486 25.9362 23.4806 26.2162 22.1846 26.2162ZM22.1846 23.2882C22.7926 23.2882 23.3606 23.1442 23.8886 22.8562C24.4326 22.5522 24.8646 22.1042 25.1846 21.5122C25.5046 20.9202 25.6646 20.2002 25.6646 19.3522C25.6646 18.0882 25.3286 17.1202 24.6566 16.4482C24.0006 15.7602 23.1926 15.4162 22.2326 15.4162C21.2726 15.4162 20.4646 15.7602 19.8086 16.4482C19.1686 17.1202 18.8486 18.0882 18.8486 19.3522C18.8486 20.6162 19.1606 21.5922 19.7846 22.2802C20.4246 22.9522 21.2246 23.2882 22.1846 23.2882Z" fill="url(#paint1_linear_3831_2789)"/>
<path d="M34.9453 14.6242C35.3773 14.0162 35.9693 13.5122 36.7213 13.1122C37.4893 12.6962 38.3613 12.4882 39.3373 12.4882C40.4733 12.4882 41.4973 12.7682 42.4093 13.3282C43.3373 13.8882 44.0653 14.6882 44.5933 15.7282C45.1373 16.7522 45.4093 17.9442 45.4093 19.3042C45.4093 20.6642 45.1373 21.8722 44.5933 22.9282C44.0653 23.9682 43.3373 24.7762 42.4093 25.3522C41.4973 25.9282 40.4733 26.2162 39.3373 26.2162C38.3613 26.2162 37.4973 26.0162 36.7453 25.6162C36.0093 25.2162 35.4093 24.7122 34.9453 24.1042V32.3362H31.5853V12.7042H34.9453V14.6242ZM41.9773 19.3042C41.9773 18.5042 41.8093 17.8162 41.4733 17.2402C41.1533 16.6482 40.7213 16.2002 40.1773 15.8962C39.6493 15.5922 39.0733 15.4402 38.4493 15.4402C37.8413 15.4402 37.2653 15.6002 36.7213 15.9202C36.1933 16.2242 35.7613 16.6722 35.4253 17.2642C35.1053 17.8562 34.9453 18.5522 34.9453 19.3522C34.9453 20.1522 35.1053 20.8482 35.4253 21.4402C35.7613 22.0322 36.1933 22.4882 36.7213 22.8082C37.2653 23.1122 37.8413 23.2642 38.4493 23.2642C39.0733 23.2642 39.6493 23.1042 40.1773 22.7842C40.7213 22.4642 41.1533 22.0082 41.4733 21.4162C41.8093 20.8242 41.9773 20.1202 41.9773 19.3042Z" fill="url(#paint2_linear_3831_2789)"/>
<path d="M55.3389 12.5122C56.3469 12.5122 57.2429 12.7362 58.0269 13.1842C58.8109 13.6162 59.4189 14.2642 59.8509 15.1282C60.2989 15.9762 60.5229 17.0002 60.5229 18.2002V26.0002H57.1629V18.6562C57.1629 17.6002 56.8989 16.7922 56.3709 16.2322C55.8429 15.6562 55.1229 15.3682 54.2109 15.3682C53.2829 15.3682 52.5469 15.6562 52.0029 16.2322C51.4749 16.7922 51.2109 17.6002 51.2109 18.6562V26.0002H47.8509V8.24023H51.2109V14.3602C51.6429 13.7842 52.2189 13.3362 52.9389 13.0162C53.6589 12.6802 54.4589 12.5122 55.3389 12.5122Z" fill="url(#paint3_linear_3831_2789)"/>
<path d="M67.6301 15.4642V21.8962C67.6301 22.3442 67.7341 22.6722 67.9421 22.8802C68.1661 23.0722 68.5341 23.1682 69.0461 23.1682H70.6061V26.0002H68.4941C65.6621 26.0002 64.2461 24.6242 64.2461 21.8722V15.4642H62.6621V12.7042H64.2461V9.41623H67.6301V12.7042H70.6061V15.4642H67.6301Z" fill="url(#paint4_linear_3831_2789)"/>
<path d="M85.3828 19.0642C85.3828 19.5442 85.3508 19.9762 85.2868 20.3602H75.5668C75.6468 21.3202 75.9828 22.0722 76.5748 22.6162C77.1668 23.1602 77.8948 23.4322 78.7588 23.4322C80.0068 23.4322 80.8948 22.8962 81.4228 21.8242H85.0468C84.6628 23.1042 83.9268 24.1602 82.8388 24.9922C81.7508 25.8082 80.4148 26.2162 78.8308 26.2162C77.5508 26.2162 76.3988 25.9362 75.3748 25.3762C74.3668 24.8002 73.5748 23.9922 72.9988 22.9522C72.4388 21.9122 72.1588 20.7122 72.1588 19.3522C72.1588 17.9762 72.4388 16.7682 72.9988 15.7282C73.5588 14.6882 74.3428 13.8882 75.3508 13.3282C76.3588 12.7682 77.5188 12.4882 78.8308 12.4882C80.0948 12.4882 81.2228 12.7602 82.2148 13.3042C83.2228 13.8482 83.9988 14.6242 84.5428 15.6322C85.1028 16.6242 85.3828 17.7682 85.3828 19.0642ZM81.9028 18.1042C81.8868 17.2402 81.5748 16.5522 80.9668 16.0402C80.3588 15.5122 79.6148 15.2482 78.7348 15.2482C77.9028 15.2482 77.1988 15.5042 76.6228 16.0162C76.0628 16.5122 75.7188 17.2082 75.5908 18.1042H81.9028Z" fill="url(#paint5_linear_3831_2789)"/>
<path d="M91.1953 14.7682C91.6273 14.0642 92.1873 13.5122 92.8753 13.1122C93.5793 12.7122 94.3793 12.5122 95.2753 12.5122V16.0402H94.3873C93.3313 16.0402 92.5313 16.2882 91.9873 16.7842C91.4593 17.2802 91.1953 18.1442 91.1953 19.3762V26.0002H87.8353V12.7042H91.1953V14.7682Z" fill="url(#paint6_linear_3831_2789)"/>
<path d="M96.6744 19.3042C96.6744 17.9602 96.9384 16.7682 97.4664 15.7282C98.0104 14.6882 98.7384 13.8882 99.6504 13.3282C100.578 12.7682 101.61 12.4882 102.746 12.4882C103.738 12.4882 104.602 12.6882 105.338 13.0882C106.09 13.4882 106.69 13.9922 107.138 14.6002V12.7042H110.522V26.0002H107.138V24.0562C106.706 24.6802 106.106 25.2002 105.338 25.6162C104.586 26.0162 103.714 26.2162 102.722 26.2162C101.602 26.2162 100.578 25.9282 99.6504 25.3522C98.7384 24.7762 98.0104 23.9682 97.4664 22.9282C96.9384 21.8722 96.6744 20.6642 96.6744 19.3042ZM107.138 19.3522C107.138 18.5362 106.978 17.8402 106.658 17.2642C106.338 16.6722 105.906 16.2242 105.362 15.9202C104.818 15.6002 104.234 15.4402 103.61 15.4402C102.986 15.4402 102.41 15.5922 101.882 15.8962C101.354 16.2002 100.922 16.6482 100.586 17.2402C100.266 17.8162 100.106 18.5042 100.106 19.3042C100.106 20.1042 100.266 20.8082 100.586 21.4162C100.922 22.0082 101.354 22.4642 101.882 22.7842C102.426 23.1042 103.002 23.2642 103.61 23.2642C104.234 23.2642 104.818 23.1122 105.362 22.8082C105.906 22.4882 106.338 22.0402 106.658 21.4642C106.978 20.8722 107.138 20.1682 107.138 19.3522Z" fill="url(#paint7_linear_3831_2789)"/>
<defs>
<linearGradient id="paint0_linear_3831_2789" x1="5.09426" y1="0.500004" x2="128.009" y2="22.9244" gradientUnits="userSpaceOnUse">
<stop offset="0.104167" stop-color="#0D65B6"/>
<stop offset="0.776042" stop-color="#B1DAFF"/>
</linearGradient>
<linearGradient id="paint1_linear_3831_2789" x1="5.09426" y1="0.500004" x2="128.009" y2="22.9244" gradientUnits="userSpaceOnUse">
<stop offset="0.104167" stop-color="#0D65B6"/>
<stop offset="0.776042" stop-color="#B1DAFF"/>
</linearGradient>
<linearGradient id="paint2_linear_3831_2789" x1="5.09426" y1="0.500004" x2="128.009" y2="22.9244" gradientUnits="userSpaceOnUse">
<stop offset="0.104167" stop-color="#0D65B6"/>
<stop offset="0.776042" stop-color="#B1DAFF"/>
</linearGradient>
<linearGradient id="paint3_linear_3831_2789" x1="5.09426" y1="0.500004" x2="128.009" y2="22.9244" gradientUnits="userSpaceOnUse">
<stop offset="0.104167" stop-color="#0D65B6"/>
<stop offset="0.776042" stop-color="#B1DAFF"/>
</linearGradient>
<linearGradient id="paint4_linear_3831_2789" x1="5.09426" y1="0.500004" x2="128.009" y2="22.9244" gradientUnits="userSpaceOnUse">
<stop offset="0.104167" stop-color="#0D65B6"/>
<stop offset="0.776042" stop-color="#B1DAFF"/>
</linearGradient>
<linearGradient id="paint5_linear_3831_2789" x1="5.09426" y1="0.500004" x2="128.009" y2="22.9244" gradientUnits="userSpaceOnUse">
<stop offset="0.104167" stop-color="#0D65B6"/>
<stop offset="0.776042" stop-color="#B1DAFF"/>
</linearGradient>
<linearGradient id="paint6_linear_3831_2789" x1="5.09426" y1="0.500004" x2="128.009" y2="22.9244" gradientUnits="userSpaceOnUse">
<stop offset="0.104167" stop-color="#0D65B6"/>
<stop offset="0.776042" stop-color="#B1DAFF"/>
</linearGradient>
<linearGradient id="paint7_linear_3831_2789" x1="5.09426" y1="0.500004" x2="128.009" y2="22.9244" gradientUnits="userSpaceOnUse">
<stop offset="0.104167" stop-color="#0D65B6"/>
<stop offset="0.776042" stop-color="#B1DAFF"/>
</linearGradient>
</defs>
</svg>
